<?xml version="1.0" encoding="utf-8"?>
<!-- Generator: Adobe Illustrator 21.1.0, SVG Export Plug-In . SVG Version: 6.00 Build 0)  -->
<svg version="1.1" id="Layer_1" xmlns="http://www.w3.org/2000/svg" xmlns:xlink="http://www.w3.org/1999/xlink" x="0px" y="0px"
	 viewBox="0 0 374.2 371.7" style="enable-background:new 0 0 374.2 371.7;" xml:space="preserve">
<style type="text/css">
	.st0{fill:#F59FA2;}
	.st1{fill:#FFFFFE;}
	.st2{fill:#FFFFFF;stroke:#FFFFFF;stroke-miterlimit:10;}
	.st3{fill:#FFFFFF;}
	.st4{fill:#B3B3B3;}
	.st5{fill:none;stroke:#B3B3B3;stroke-miterlimit:10;}
</style>
<g id="Layer_8">
	<g>
		
			<image style="overflow:visible;opacity:0.6;enable-background:new    ;" width="368" height="368" xlink:href="F26CCDBD.png"  transform="matrix(1 0 0 1 0 3.7463)">
		</image>
		<g>
			<path class="st0" d="M192,353.2c-94,0-170.5-76.5-170.5-170.5S98,12.2,192,12.2s170.5,76.5,170.5,170.5
				C362.5,276.8,286,353.2,192,353.2z"/>
			<path class="st1" d="M192,16.7c44.3,0,86,17.3,117.4,48.6c31.4,31.4,48.6,73,48.6,117.4s-17.3,86-48.6,117.4
				c-31.4,31.4-73,48.6-117.4,48.6s-86-17.3-117.4-48.6S26,227.1,26,182.7s17.3-86,48.6-117.4S147.7,16.7,192,16.7 M192,7.7
				c-96.6,0-175,78.4-175,175s78.4,175,175,175s175-78.4,175-175S288.6,7.7,192,7.7L192,7.7z"/>
		</g>
	</g>
</g>
<g id="Layer_5">
	<path class="st2" d="M338.1,102.9"/>
	<g>
		
			<image style="overflow:visible;opacity:0.71;enable-background:new    ;" width="243" height="139" xlink:href="F26CCDBF.png"  transform="matrix(1 0 0 1 69 54.7463)">
		</image>
		<g>
			<path class="st3" d="M132.3,188.2c-8.1-0.1-14.6-1.5-18.6-2.7c-6-1.7-10.4-3.9-13.3-5.3c-5.6-2.8-9.3-4.6-13.3-8l-0.1-0.1
				c-3.3-2.8-11.9-10.1-13.2-21.5c-1.6-13.9,8.6-24.2,10.7-26.1c5.9-4.4,12.2-7.9,18.6-10.6c10.2-4.3,19.8-6.1,32.2-6.1
				c5.7,0,11.8,0.4,18.3,0.8c8,0.5,17.1,1,27.7,1c8.2,0,16.2-0.3,24.6-1c0.2,0,23.1-1.9,23-3c0-0.3,0-0.5-4.3-0.5
				c-2.7,0-6.7,0.1-12,0.3c-1,0-2.4,0-4,0c-1.2,0-2.6,0-4,0c-8.6,0.2-14.9,0.8-18.3,1.1l-0.8,0.1c-5.4,0.5-11.5,1.1-18.3,1.1
				c-7.6,0-14.6-0.7-21.3-2.2c-8.8-2-14.2-4.7-15.9-7.9c-3.7-7,0.7-15.6,1.6-17.2c2.1-3.8,4.7-5.8,9-9.2c4.1-3.2,8.7-6,13.3-8
				c10-4.4,21.3-6.4,27.5-6.4c2.9,0,4.1,0.5,4.3,0.9c0.3,0.8-4.7,3-8.6,4.7c-6.7,2.9-14.3,6.2-13.8,9.1c0.5,2.6,7.1,3,19.2,3.5
				c7.1,0.3,16,0.8,26.1,1.9c26.9,2.9,51.5,6.6,57.3,20.9c0.1,0.3,2.8,7,0,13.2c-4.3,9.4-55.4,15.8-55.9,15.9s-69.9,15-72.2,16.1
				c-0.1,0-5,2.3-5.5,2.8l0.1-0.1c-3.1,2.4-2.8,2.8-2.7,3s0.3,0.3,0.6,0.3c1.1,0,4-1.2,7.1-2.5l0.7-0.3c8-3.4,14-5.1,24-8
				c6.1-1.8,12.4-2.9,23.9-4.9l2.8-0.5c3.2-0.5,4.9-0.8,6.8-1.1c0.9-0.1,1.8-0.3,2.9-0.5c2.7-0.4,4.6-0.8,5.9-1l0.4-0.1
				c20.4-3.5,31.6-5.5,41-5.5c1.5,0,2.9,0,4.3,0.1c10.6,0.8,18.9,3.3,24,5.3c9.8,3.9,16.3,8.7,18.6,10.7c7.4,6,18.3,17.1,16,21.1
				c-0.4,0.7-1.1,1-2.2,1c-1.4,0-3.5-0.5-6.1-1.1c-4.9-1.2-11.7-2.8-20.8-2.8c-1.8,0-3.7,0.1-5.5,0.2c-14.5,1.1-30.1,6.2-34.8,8
				l-0.4,0.1c-0.5,0.2-1.3,0.5-2.3,0.9c-1.5,0.5-3,0.9-5.8,1.6c-2.3,0.6-5.5,1.4-10.2,2.7c-6,1.6-8.8,2.5-11,3.2s-3.9,1.2-7.7,2.2
				c-5.6,1.5-17.4,3.9-22.5,5l-1.6,0.3C158.2,186.9,134.3,188.2,132.3,188.2L132.3,188.2z"/>
			<path class="st4" d="M181.3,56.9c3.1,0,4,0.5,4,0.7c-0.2,0.8-4.9,2.9-8.5,4.4c-8.5,3.7-14.4,6.5-13.9,9.3s7.2,3.2,19.4,3.7
				c7.1,0.3,16,0.8,26.1,1.9c26.8,2.8,51.3,6.6,57.1,20.8c0.1,0.3,2.7,6.9,0,13c-4.2,9.3-55.2,15.7-55.7,15.7
				c-0.5,0.1-69.7,14.9-72.3,16.1c-0.5,0.2-4.4,2-5.4,2.8l0,0c-3.2,2.5-3,3-2.8,3.3c0.1,0.2,0.3,0.4,0.8,0.4c1.1,0,4-1.2,7.2-2.5
				l0.7-0.3c7.9-3.4,14-5.1,24-8c6-1.7,12.4-2.8,23.9-4.8l2.8-0.5c3.1-0.5,4.9-0.8,6.8-1.1c0.9-0.1,1.8-0.3,3-0.5
				c2.7-0.4,4.6-0.8,5.9-1l0.4-0.1c20.4-3.5,31.6-5.5,41-5.5c1.5,0,2.9,0,4.3,0.1c8.3,0.6,16.6,2.4,23.9,5.3
				c9.8,3.8,16.2,8.7,18.6,10.6c7.9,6.4,18,17.1,15.9,20.7c-0.3,0.6-1,0.8-2,0.8c-1.4,0-3.4-0.5-6-1.1c-4.9-1.2-11.7-2.9-20.8-2.9
				c-1.8,0-3.7,0.1-5.5,0.2c-14.6,1.1-30.1,6.2-34.9,8.1l-0.3,0.1c-0.5,0.2-1.3,0.5-2.3,0.9c-1.5,0.5-3,0.9-5.8,1.6
				c-2.3,0.6-5.5,1.4-10.2,2.7c-6,1.6-8.8,2.5-11,3.2s-3.9,1.2-7.7,2.2c-5.6,1.5-17.4,4-22.5,5l-1.5,0.3
				c-19.4,4.1-43.3,5.3-45.3,5.3c-8.1-0.1-14.6-1.5-18.6-2.7c-6-1.7-10.4-3.9-13.3-5.3c-5.6-2.8-9.3-4.6-13.3-8l-0.1-0.1
				c-3.2-2.7-11.8-10-13.1-21.4c-1.6-13.8,8.5-23.9,10.6-25.9c5.9-4.4,12.2-7.9,18.6-10.6c10.1-4.2,19.7-6.1,32.1-6.1
				c5.7,0,11.8,0.4,18.3,0.8c8,0.5,17.1,1,27.7,1c8.2,0,16.3-0.3,24.6-1c4.9-0.4,10.6-1,15.3-1.5c8-1,7.9-1.2,7.9-1.7
				c0-0.6-0.2-0.7-4.5-0.7c-2.7,0-6.7,0.1-12,0.3c-1.3,0-2.7,0-4,0s-2.7,0-4,0c-8.6,0.2-14.9,0.8-18.3,1.1l-0.9,0.1
				c-5.4,0.5-11.5,1.1-18.3,1.1c-7.6,0-14.6-0.7-21.2-2.2c-8.8-2-14-4.6-15.7-7.8c-3.6-6.9,0.7-15.4,1.6-17c2.1-3.7,4.7-5.8,9-9.1
				c4.1-3.2,8.7-6,13.3-8C163.9,58.9,175.1,56.9,181.3,56.9 M181.3,56.4c-6.1,0-17.5,2-27.6,6.4c-1.9,0.8-7.4,3.3-13.4,8
				c-4.4,3.4-7,5.4-9.1,9.3c-0.8,1.4-5.4,10.2-1.6,17.5c0.7,1.4,3.1,5.1,16,8c7.5,1.7,14.7,2.2,21.3,2.2c6.8,0,13-0.6,18.3-1.1
				c3.1-0.3,9.8-1,19.2-1.2c1.5,0,2.8,0,4,0c1.6,0,3,0,4,0c4.2-0.1,8.8-0.3,12-0.3c2.4,0,4,0.1,4,0.3c0,0.4-12.3,1.9-22.8,2.7
				c-9.1,0.7-17.2,1-24.6,1c-19.2,0-33.2-1.8-46-1.8c-10.9,0-20.8,1.3-32.3,6.1c-4.2,1.7-10.9,5-18.7,10.7
				c-1.4,1.3-12.4,11.8-10.8,26.3c1.4,11.7,10.2,19,13.4,21.8c4,3.4,7.8,5.3,13.4,8c3.2,1.6,7.5,3.7,13.4,5.3
				c2.5,0.7,9.4,2.5,18.7,2.7l0,0c1.8,0,25.8-1.2,45.4-5.3c3.7-0.8,17.8-3.7,24.1-5.3c7.9-2.1,6.9-2.1,18.7-5.3
				c10.4-2.8,13.2-3.4,16-4.3c1.3-0.5,2.2-0.8,2.7-1c6-2.4,21.2-7,34.7-8c1.9-0.1,3.8-0.2,5.5-0.2c14,0,22.7,4,26.8,4
				c1.2,0,2-0.3,2.4-1.1c2.5-4.3-9.4-16-16-21.4c-2.2-1.8-8.7-6.8-18.7-10.7c-3.3-1.3-12-4.5-24.1-5.3c-1.4-0.1-2.9-0.1-4.3-0.1
				c-9.5,0-20.9,2-41.1,5.5c-1.3,0.2-3.3,0.6-6.3,1.1c-3.5,0.6-5.1,0.8-9.8,1.6c-13.5,2.3-20.2,3.5-26.7,5.3
				c-10,2.9-16.1,4.7-24.1,8c-2.3,1-6.5,2.8-7.7,2.8c-0.2,0-0.3,0-0.3-0.1c-0.2-0.4,2.7-2.7,2.7-2.7s3.2-1.7,5.3-2.7
				c2.5-1.2,72.1-16,72.2-16c0,0,51.8-6.4,56.1-16c2.8-6.2,0.2-12.8,0-13.4c-6-14.9-32-18.4-57.5-21.1c-26.3-2.8-44.4-1.2-45.1-5.2
				c-0.8-4.6,23.1-11.4,22.4-13.8C185.5,56.8,183.9,56.4,181.3,56.4L181.3,56.4z M132.3,145.7L132.3,145.7L132.3,145.7L132.3,145.7z
				 M132.3,145.7L132.3,145.7L132.3,145.7L132.3,145.7z M132.3,145.7L132.3,145.7L132.3,145.7L132.3,145.7z"/>
		</g>
	</g>
</g>
<g id="Layer_2">
	<g id="Layer_7">
	</g>
</g>
<g id="Layer_6">
	<path class="st3" d="M374.2,0"/>
	<g>
		
			<image style="overflow:visible;opacity:0.71;enable-background:new    ;" width="242" height="153" xlink:href="F26CCDBA.png"  transform="matrix(1 0 0 1 70 154.7463)">
		</image>
		<g>
			<path class="st3" d="M261.8,298.2c-0.7,2.1-3.1,3.8-5.3,3.8H127c-2.2,0-4.6-1.7-5.3-3.8L74.8,160.1c-0.7-2.1,0.5-3.8,2.7-3.8H306
				c2.2,0,3.4,1.7,2.7,3.8L261.8,298.2z"/>
			<path class="st5" d="M261.8,298.2c-0.7,2.1-3.1,3.8-5.3,3.8H127c-2.2,0-4.6-1.7-5.3-3.8L74.8,160.1c-0.7-2.1,0.5-3.8,2.7-3.8H306
				c2.2,0,3.4,1.7,2.7,3.8L261.8,298.2z"/>
		</g>
	</g>
</g>
<g id="Layer_9">
</g>
</svg>
