<?xml version="1.0" encoding="utf-8"?>
<!-- Generator: Adobe Illustrator 21.1.0, SVG Export Plug-In . SVG Version: 6.00 Build 0)  -->
<svg version="1.1" id="Layer_1" xmlns="http://www.w3.org/2000/svg" xmlns:xlink="http://www.w3.org/1999/xlink" x="0px" y="0px"
	 viewBox="0 0 50 62.5" style="enable-background:new 0 0 50 62.5;" xml:space="preserve">
<style type="text/css">
	.st0{fill:#FFFFFE;}
</style>
<g>
	<path class="st0" d="M45,15H5c-2.7,0-5-2.2-5-5V5c0-2.7,2.2-5,5-5l40,0c2.8,0,5,2.2,5,5v5C50,12.8,47.8,15,45,15z"/>
</g>
<g>
	<path class="st0" d="M45,62.5H5c-2.7,0-5-2.2-5-5v-5c0-2.8,2.2-5,5-5h40c2.8,0,5,2.2,5,5v5C50,60.3,47.8,62.5,45,62.5z"/>
</g>
<g>
	<path class="st0" d="M45,38.5H5c-2.7,0-5-2.2-5-5v-5c0-2.7,2.2-5,5-5h40c2.8,0,5,2.2,5,5v5C50,36.3,47.8,38.5,45,38.5z"/>
</g>
</svg>
